<svg width="25" height="28" fill="none" xmlns="http://www.w3.org/2000/svg">
  <path d="M12.75 3.283V0L5.094 4.828l7.656 4.828V6.373c5.068 0 9.188 4.155 9.188 9.268 0 5.114-4.12 9.27-9.188 9.27-5.068 0-9.188-4.156-9.188-9.27H.5C.5 22.47 5.982 28 12.75 28S25 22.47 25 15.642c0-6.829-5.482-12.359-12.25-12.359z" fill="#fff"/>
  <path d="M8.82 19.44v-6.017l-1.238.293v-1.064l1.82-.815h.85v7.604H8.82zM14.642 19.571c-.696 0-1.292-.163-1.787-.489a3.292 3.292 0 01-1.152-1.38c-.266-.593-.399-1.28-.399-2.063 0-.775.133-1.46.399-2.053.273-.594.657-1.053 1.152-1.38.495-.332 1.09-.499 1.787-.499.696 0 1.292.167 1.787.5.495.325.876.785 1.142 1.38.272.593.409 1.277.409 2.052 0 .782-.137 1.47-.41 2.064a3.218 3.218 0 01-1.14 1.38c-.496.325-1.092.488-1.788.488zm0-1.249c.567 0 1.03-.239 1.389-.717s.538-1.133.538-1.966-.18-1.488-.538-1.966c-.359-.478-.822-.717-1.389-.717-.574 0-1.04.24-1.4.717-.351.478-.527 1.133-.527 1.966s.176 1.488.527 1.966c.36.478.826.717 1.4.717z" fill="#fff"/>
</svg>
