<svg width="325" height="16" fill="none" xmlns="http://www.w3.org/2000/svg">
	<rect opacity=".3" x="43" y="6" width="240" height="4" rx="2" fill="#fff" />
	<circle cx="121" cy="8" r="5" fill="#fff" />
	<rect x="39" y="6" width="80" height="4" rx="2" fill="#fff" />
	<path
		d="M294.906 8.83h1.111c1.225 0 1.98.584 1.974 1.63-.007.89-.756 1.524-1.873 1.524-1.149 0-1.93-.577-1.999-1.472h-1.365c.089 1.574 1.403 2.66 3.364 2.66 1.911 0 3.32-1.099 3.32-2.711 0-1.282-.901-2.101-2.247-2.222v-.031c1.123-.235 1.93-1.003 1.93-2.152 0-1.365-1.149-2.387-3.016-2.387-1.79 0-3.04 1.022-3.154 2.622h1.333c.07-.915.806-1.454 1.821-1.454 1.08 0 1.632.559 1.632 1.415 0 .857-.711 1.473-1.758 1.473h-1.073V8.83zm5.808-2.292h1.346c0-.977.793-1.695 1.84-1.695.972 0 1.606.66 1.606 1.505 0 .717-.279 1.187-1.485 2.418l-3.231 3.257V13h6.265v-1.2h-4.361v-.031l2.082-2.089c1.638-1.638 2.133-2.367 2.133-3.421 0-1.441-1.212-2.59-3.009-2.59-1.84 0-3.186 1.206-3.186 2.87zm8.601.254a.82.82 0 00.831-.825.822.822 0 00-.831-.832.823.823 0 00-.832.832c0 .463.369.825.832.825zm0 4.907a.822.822 0 00.831-.832.82.82 0 00-.831-.825.822.822 0 00-.832.825c0 .47.369.832.832.832zM316.088 13h1.365v-1.822h1.263V9.985h-1.263V3.84h-2.057c-2.057 2.984-3.104 4.628-3.891 6.1v1.238h4.583V13zm-3.263-3.034c.73-1.301 1.663-2.749 3.25-5.021h.026v5.059h-3.276v-.038zM322.086 13h1.391V3.84h-1.403l-2.412 1.714V6.9l2.393-1.65h.031V13zM3.028 13h1.39V3.84H3.015L.603 5.554V6.9l2.393-1.65h.032V13zm5.941 0h1.39V3.84H8.957L6.544 5.554V6.9l2.394-1.65h.031V13zm4.621-6.208a.821.821 0 00.832-.825.822.822 0 00-.832-.832.822.822 0 00-.831.832c0 .463.368.825.831.825zm0 4.907a.822.822 0 00.832-.832.821.821 0 00-.832-.825.821.821 0 00-.831.825c0 .47.368.832.831.832zm2.343-5.16h1.345c0-.978.794-1.696 1.841-1.696.971 0 1.606.66 1.606 1.505 0 .717-.28 1.187-1.485 2.418l-3.231 3.257V13h6.265v-1.2h-4.36v-.031l2.081-2.089c1.638-1.638 2.133-2.367 2.133-3.421 0-1.441-1.212-2.59-3.009-2.59-1.84 0-3.186 1.206-3.186 2.87zM24.045 13h1.492l3.98-7.928V3.84h-6.234v1.2h4.83v.032L24.046 13z"
		fill="#B3B3B3" />
</svg>
