<svg width="25" height="28" fill="none" xmlns="http://www.w3.org/2000/svg">
	<path
		d="M12.25 3.283V0l7.656 4.828-7.656 4.828V6.373c-5.068 0-9.188 4.155-9.188 9.268 0 5.114 4.12 9.27 9.188 9.27 5.068 0 9.188-4.156 9.188-9.27H24.5C24.5 22.47 19.018 28 12.25 28S0 22.47 0 15.642C0 8.813 5.482 3.283 12.25 3.283z"
		fill="#fff" />
	<path
		d="M8.636 19.571c-.495 0-.944-.087-1.346-.26a2.244 2.244 0 01-.969-.826c-.244-.37-.373-.833-.387-1.39H7.29c.007.369.126.68.355.934.237.246.568.369.991.369.402 0 .71-.112.926-.337.215-.224.323-.507.323-.847 0-.398-.144-.699-.43-.901-.28-.21-.643-.315-1.088-.315h-.56v-1.141h.57c.367 0 .672-.087.916-.26.244-.175.366-.431.366-.772 0-.282-.093-.507-.28-.673-.18-.174-.43-.261-.754-.261-.351 0-.628.105-.829.315a1.23 1.23 0 00-.323.771H6.127c.03-.702.27-1.256.722-1.662.46-.405 1.051-.608 1.776-.608.517 0 .951.094 1.303.282a1.9 1.9 0 01.807.728c.187.304.28.641.28 1.01 0 .428-.118.79-.355 1.087-.23.29-.517.485-.861.586.423.087.768.297 1.033.63.266.326.399.739.399 1.238 0 .42-.1.804-.302 1.152a2.202 2.202 0 01-.883.836c-.38.21-.85.315-1.41.315zM15.513 19.571c-.697 0-1.292-.163-1.788-.489a3.292 3.292 0 01-1.152-1.38c-.265-.593-.398-1.28-.398-2.063 0-.775.133-1.46.398-2.053.273-.594.657-1.053 1.152-1.38.496-.332 1.091-.499 1.788-.499.696 0 1.292.167 1.787.5.495.325.876.785 1.141 1.38.273.593.41 1.277.41 2.052 0 .782-.137 1.47-.41 2.064a3.218 3.218 0 01-1.141 1.38c-.495.325-1.091.488-1.787.488zm0-1.249c.567 0 1.03-.239 1.389-.717.358-.478.538-1.133.538-1.966s-.18-1.488-.538-1.966c-.36-.478-.822-.717-1.39-.717-.574 0-1.04.24-1.399.717-.352.478-.527 1.133-.527 1.966s.175 1.488.527 1.966c.359.478.825.717 1.4.717z"
		fill="#fff" />
</svg>
