<svg width="20" height="18" viewBox="0 0 20 18" fill="none" xmlns="http://www.w3.org/2000/svg">
<path fill-rule="evenodd" clip-rule="evenodd" d="M14.4649 0.667542C14.46 0.667527 14.455 0.667519 14.45 0.667519H14.4667C14.4661 0.667527 14.4655 0.667534 14.4649 0.667542ZM14.4649 0.667542C13.8406 0.676097 13.2578 0.809415 12.675 1.05919C12.1 1.30919 11.5833 1.65919 11.1333 2.14252L10.0083 3.29252L8.925 2.12585C8.45833 1.65085 7.925 1.29252 7.34166 1.04252C6.775 0.792519 6.18333 0.667519 5.55 0.667519C4.71666 0.650852 3.925 0.875852 3.19167 1.33419C2.46667 1.78419 1.88333 2.40085 1.46667 3.15085C1.04167 3.90919 0.833332 4.73419 0.833332 5.63419C0.833332 6.28419 0.941665 6.91752 1.19167 7.51752C1.43333 8.12585 1.775 8.66752 2.21667 9.14252L10 17.3342L17.7917 9.14252C18.225 8.68419 18.575 8.13419 18.8083 7.51752C19.05 6.90919 19.1667 6.27585 19.1667 5.63419C19.1833 4.75085 18.975 3.92585 18.5333 3.15085C18.1 2.37585 17.525 1.77585 16.8083 1.33419C16.0959 0.895109 15.3093 0.670165 14.4649 0.667542ZM13.25 2.56752C13.6167 2.41752 14.0333 2.33418 14.45 2.33418L14.4583 2.32585C15.0417 2.30918 15.575 2.45918 16.0417 2.76752C16.5167 3.07585 16.8917 3.48418 17.1833 3.96752C17.4583 4.46752 17.6 5.02585 17.6 5.63418C17.6 6.06752 17.5333 6.49252 17.3667 6.88418C17.2083 7.30085 16.975 7.65085 16.6667 7.96752L10 15.0009L3.31666 7.97585C3.01666 7.65918 2.79166 7.30918 2.625 6.89252C2.46666 6.47585 2.4 6.05918 2.4 5.64252C2.38333 5.03418 2.525 4.47585 2.81666 3.97585C3.10833 3.46752 3.49166 3.06752 3.96666 2.76752C4.43333 2.48418 4.95 2.31752 5.53333 2.31752C5.96666 2.31752 6.36666 2.40085 6.75 2.56752C7.125 2.73418 7.46666 2.95918 7.76666 3.29252L9.98333 5.62585L12.2333 3.29252C12.5333 2.98418 12.875 2.73418 13.25 2.56752Z" fill="#A6A6A6"/>
</svg>
