<svg width="25" height="26" viewBox="0 0 25 26" fill="#666" xmlns="http://www.w3.org/2000/svg">
<path d="M24.9999 4.6885C25.0001 3.80605 24.7512 2.94146 24.2818 2.1942C23.8124 1.44693 23.1416 0.847337 22.3466 0.464386C21.5516 0.0814347 20.6646 -0.0693193 19.7877 0.0294652C18.9108 0.12825 18.0795 0.47256 17.3896 1.02279C16.6997 1.57302 16.1792 2.30682 15.8878 3.13979C15.5964 3.97275 15.5461 4.87104 15.7426 5.73134C15.9391 6.59163 16.3745 7.37898 16.9987 8.00282C17.6228 8.62666 18.4103 9.06164 19.2707 9.25774V9.37597C19.2701 9.9283 19.0504 10.4578 18.6598 10.8484C18.2693 11.2389 17.7397 11.4586 17.1874 11.4593L7.81247 11.4596C7.25994 11.4596 6.73003 11.2401 6.33934 10.8494C5.94864 10.4587 5.72915 9.92876 5.72915 9.37623V9.25774C6.85277 9.00165 7.84268 8.3406 8.50978 7.40086C9.17688 6.46113 9.47442 5.30858 9.34556 4.16336C9.21671 3.01814 8.67048 1.96053 7.81123 1.19254C6.95198 0.424545 5.83993 2.74276e-06 4.68748 2.74276e-06C3.53504 2.74276e-06 2.42299 0.424545 1.56374 1.19254C0.704484 1.96053 0.158262 3.01814 0.0294046 4.16336C-0.0994526 5.30858 0.198087 6.46113 0.865188 7.40086C1.53229 8.3406 2.5222 9.00165 3.64582 9.25774V9.37623C3.64582 10.4813 4.08481 11.5411 4.8662 12.3225C5.6476 13.1039 6.7074 13.5429 7.81247 13.5429L11.4585 13.5427L11.4584 15.7443C10.3348 16.0004 9.34487 16.6614 8.67777 17.6012C8.01067 18.5409 7.71313 19.6935 7.84199 20.8387C7.97085 21.9839 8.51707 23.0415 9.37632 23.8095C10.2356 24.5775 11.3476 25.002 12.5001 25.002C13.6525 25.002 14.7646 24.5775 15.6238 23.8095C16.4831 23.0415 17.0293 21.9839 17.1581 20.8387C17.287 19.6935 16.9895 18.5409 16.3224 17.6012C15.6553 16.6614 14.6654 16.0004 13.5417 15.7443L13.5419 13.5427H17.1875C18.2922 13.5415 19.3513 13.1021 20.1324 12.321C20.9135 11.5398 21.3529 10.4808 21.3542 9.3761V9.25774C22.389 9.02056 23.3129 8.43964 23.975 7.60979C24.6372 6.77993 24.9985 5.75015 25 4.6885H24.9999ZM15.1041 20.3137C15.1041 20.8287 14.9514 21.3322 14.6652 21.7605C14.3791 22.1887 13.9724 22.5225 13.4965 22.7196C13.0207 22.9167 12.497 22.9683 11.9919 22.8678C11.4867 22.7673 11.0227 22.5193 10.6585 22.1551C10.2943 21.7909 10.0463 21.3269 9.94583 20.8217C9.84534 20.3166 9.89691 19.793 10.094 19.3171C10.2911 18.8413 10.6249 18.4345 11.0531 18.1484C11.4814 17.8622 11.9849 17.7095 12.4999 17.7095C13.1904 17.7103 13.8523 17.9849 14.3405 18.4731C14.8287 18.9613 15.1033 19.6232 15.1041 20.3137V20.3137Z" fill="black"/>
</svg>
