<svg width="257" height="28" viewBox="0 0 257 28" fill="none" xmlns="http://www.w3.org/2000/svg">
<path d="M141.608 3.14099C139.565 2.56158 137.826 2.40911 136.393 3.41544C135.021 4.39129 134.563 5.91604 134.563 7.9897V9.57544H132.276C131.849 9.57544 131.514 9.91089 131.514 10.3378C131.514 10.7648 131.849 11.1002 132.276 11.1002H134.563V23.5727C134.563 24.0301 134.929 24.4265 135.387 24.396C135.844 24.396 136.21 24.0301 136.21 23.5727V11.1002H140.51C140.937 11.1002 141.272 10.7648 141.272 10.3378C141.272 9.91089 140.937 9.57544 140.51 9.57544H136.21V8.0202C136.21 6.40396 136.454 5.45861 137.186 4.78772C138.284 3.78139 139.809 4.17782 141.211 4.57426C141.699 4.69624 142.157 4.3303 142.157 3.84238C142.157 3.50693 141.913 3.23247 141.608 3.14099ZM144.72 24.396C145.147 24.396 145.544 24.0301 145.544 23.5727V3.6899C145.544 3.26297 145.147 2.86653 144.72 2.86653C144.263 2.86653 143.897 3.26297 143.897 3.6899V23.5727C143.897 24.0301 144.263 24.396 144.72 24.396ZM155.043 24.579C159.16 24.579 162.453 21.4075 162.453 16.8943C162.453 12.4115 159.16 9.2095 155.043 9.2095C150.957 9.2095 147.633 12.4115 147.633 16.8943C147.633 21.4075 150.957 24.579 155.043 24.579ZM155.043 23.0543C151.902 23.0543 149.34 20.4927 149.34 16.8943C149.34 13.3263 151.902 10.7343 155.043 10.7343C158.215 10.7343 160.746 13.3263 160.746 16.8943C160.746 20.4927 158.215 23.0543 155.043 23.0543ZM188.36 9.39247C187.964 9.17901 187.476 9.36198 187.293 9.78891L181.926 21.9564L176.559 9.78891C176.406 9.48396 176.101 9.30099 175.796 9.30099C175.461 9.30099 175.156 9.48396 175.034 9.78891L169.667 21.9564L164.3 9.78891C164.117 9.36198 163.629 9.17901 163.202 9.39247C162.805 9.57544 162.622 10.0634 162.805 10.4598L168.874 23.9996C169.026 24.335 169.331 24.4875 169.667 24.4875C170.002 24.4875 170.307 24.335 170.429 23.9996L175.796 11.9236L181.133 23.9996C181.285 24.335 181.59 24.4875 181.926 24.4875C182.231 24.4875 182.566 24.335 182.688 23.9996L188.787 10.4598C188.97 10.0634 188.787 9.57544 188.36 9.39247ZM196.552 24.579C198.534 24.579 200.363 23.8166 201.705 22.4748C201.858 22.3529 201.949 22.1394 201.949 21.9259C201.949 21.4685 201.614 21.1331 201.156 21.1331C200.943 21.1331 200.729 21.2246 200.607 21.3465C199.51 22.4444 198.076 23.0543 196.552 23.0543C193.38 23.0543 190.849 20.4927 190.849 16.8943C190.849 13.3263 193.38 10.7343 196.552 10.7343C198.076 10.7343 199.51 11.3747 200.607 12.4725C200.729 12.5945 200.943 12.6859 201.156 12.6859C201.614 12.6859 201.949 12.3505 201.949 11.8931C201.949 11.6796 201.858 11.4661 201.705 11.3442C200.363 10.0024 198.534 9.2095 196.552 9.2095C192.435 9.2095 189.141 12.4115 189.141 16.8943C189.141 21.4075 192.435 24.579 196.552 24.579ZM217.635 9.39247C217.208 9.39247 216.812 9.78891 216.812 10.2158V12.32C215.531 10.3988 213.396 9.2095 210.957 9.2095C206.992 9.2095 203.76 12.4115 203.76 16.8943C203.76 21.4075 206.992 24.579 210.957 24.579C213.396 24.579 215.531 23.4202 216.812 21.499V23.5727C216.812 24.0301 217.208 24.396 217.635 24.396C218.092 24.396 218.458 24.0301 218.458 23.5727V10.2158C218.458 9.78891 218.092 9.39247 217.635 9.39247ZM211.17 23.0543C208.029 23.0543 205.467 20.4927 205.467 16.8943C205.467 13.3263 208.029 10.7343 211.17 10.7343C214.342 10.7343 216.873 13.3263 216.873 16.8943C216.873 20.4927 214.342 23.0543 211.17 23.0543ZM227.625 9.24C225.551 9.30099 223.813 10.3378 222.776 11.9541V10.2158C222.776 9.75841 222.41 9.39247 221.953 9.39247C221.495 9.39247 221.129 9.75841 221.129 10.2158V23.5727C221.129 24.0301 221.495 24.396 221.953 24.396C222.38 24.396 222.776 24.0301 222.776 23.5727V15.7354C222.776 12.8384 224.88 10.8867 227.625 10.8867C228.082 10.8867 228.448 10.5208 228.448 10.0634C228.448 9.60594 228.082 9.24 227.625 9.24ZM242.883 2.86653C242.456 2.86653 242.059 3.26297 242.059 3.6899V12.32C240.779 10.3988 238.644 9.2095 236.204 9.2095C232.24 9.2095 229.007 12.4115 229.007 16.8943C229.007 21.4075 232.24 24.579 236.204 24.579C238.644 24.579 240.779 23.4202 242.059 21.499V23.5727C242.059 24.0301 242.456 24.396 242.883 24.396C243.34 24.396 243.706 24.0301 243.706 23.5727V3.6899C243.706 3.26297 243.34 2.86653 242.883 2.86653ZM236.418 23.0543C233.277 23.0543 230.715 20.4927 230.715 16.8943C230.715 13.3263 233.277 10.7343 236.418 10.7343C239.589 10.7343 242.12 13.3263 242.12 16.8943C242.12 20.4927 239.589 23.0543 236.418 23.0543ZM250.463 24.579C252.842 24.6705 255.861 23.3287 255.892 20.4012C255.953 15.1255 247.018 17.4127 247.139 13.5703C247.2 11.8626 248.725 10.7343 250.799 10.7952C251.958 10.8257 253.33 11.2527 254.397 11.8626C254.489 11.9236 254.611 11.9846 254.763 11.9846C255.19 11.9846 255.526 11.6491 255.556 11.2222C255.556 10.9477 255.404 10.6733 255.16 10.5513C253.94 9.81941 252.049 9.27049 250.616 9.2095C247.719 9.11802 245.615 10.8867 245.523 13.5093C245.31 19.1509 254.336 16.9552 254.245 20.4622C254.184 21.9869 252.446 23.0848 250.25 23.0238C249.03 22.9628 247.902 22.6883 246.713 22.1089C246.621 22.0784 246.499 22.0479 246.408 22.0479C245.981 22.0174 245.615 22.3834 245.584 22.7798C245.584 23.0848 245.767 23.3897 246.042 23.5117C247.414 24.1826 248.878 24.5485 250.463 24.579Z" fill="#1D355D" fill-opacity="0.5"/>
<path fill-rule="evenodd" clip-rule="evenodd" d="M81.0194 9.18594C79.8789 9.18594 78.8093 9.52255 77.9006 10.1023C77.6688 9.54127 77.1343 9.14855 76.5283 9.14855C75.6905 9.14855 75.0313 9.85916 75.0313 10.7194V23.3797C75.0313 24.2586 75.7086 24.9505 76.5283 24.9505C77.3481 24.9505 78.0253 24.2399 78.0253 23.3797V15.4881C78.0253 13.7489 79.3619 12.3463 81.0194 12.3463C81.8569 12.3463 82.5164 11.6357 82.5164 10.7755C82.5164 9.91527 81.8569 9.18594 81.0194 9.18594Z" fill="#1D355D"/>
<path fill-rule="evenodd" clip-rule="evenodd" d="M81.0194 9.18594C79.8789 9.18594 78.8093 9.52255 77.9006 10.1023C77.6688 9.54127 77.1343 9.14855 76.5283 9.14855C75.6905 9.14855 75.0313 9.85916 75.0313 10.7194V23.3797C75.0313 24.2586 75.7086 24.9505 76.5283 24.9505C77.3481 24.9505 78.0253 24.2399 78.0253 23.3797V15.4881C78.0253 13.7489 79.3619 12.3463 81.0194 12.3463C81.8569 12.3463 82.5164 11.6357 82.5164 10.7755C82.5164 9.91527 81.8569 9.18594 81.0194 9.18594Z" fill="#1D355D"/>
<path fill-rule="evenodd" clip-rule="evenodd" d="M68.6087 18.6035C68.6087 20.3447 67.2185 21.7489 65.4946 21.7489C63.7706 21.7489 62.3806 20.3447 62.3806 18.6035V15.4581C62.3806 13.7169 63.7706 12.3127 65.4946 12.3127H68.6087V18.6035ZM70.1657 9.14855H65.4761C62.0282 9.14855 59.2293 11.9757 59.2293 15.4581V18.6035C59.2293 22.086 62.0282 24.9131 65.4761 24.9131C66.6623 24.9131 67.7746 24.5761 68.7199 23.9957C68.9608 24.5574 69.5169 24.9505 70.1471 24.9505C71.0184 24.9505 71.7043 24.2391 71.7043 23.3778V10.7213C71.7226 9.86002 71.0184 9.14855 70.1657 9.14855Z" fill="#1D355D"/>
<path fill-rule="evenodd" clip-rule="evenodd" d="M68.6087 18.6035C68.6087 20.3447 67.2185 21.7489 65.4946 21.7489C63.7706 21.7489 62.3806 20.3447 62.3806 18.6035V15.4581C62.3806 13.7169 63.7706 12.3127 65.4946 12.3127H68.6087V18.6035ZM70.1657 9.14855H65.4761C62.0282 9.14855 59.2293 11.9757 59.2293 15.4581V18.6035C59.2293 22.086 62.0282 24.9131 65.4761 24.9131C66.6623 24.9131 67.7746 24.5761 68.7199 23.9957C68.9608 24.5574 69.5169 24.9505 70.1471 24.9505C71.0184 24.9505 71.7043 24.2391 71.7043 23.3778V10.7213C71.7226 9.86002 71.0184 9.14855 70.1657 9.14855Z" fill="#1D355D"/>
<path fill-rule="evenodd" clip-rule="evenodd" d="M49.9596 9.18578C48.0787 9.18578 46.4025 10.0047 45.2479 11.3076C44.0932 10.0047 42.4171 9.18578 40.5361 9.18578C39.3443 9.18578 38.2268 9.52081 37.277 10.0978C37.035 9.53941 36.4764 9.14855 35.8432 9.14855C34.9677 9.14855 34.2788 9.85581 34.2788 10.712V23.3126C34.2788 24.1874 34.9866 24.876 35.8432 24.876C36.6998 24.876 37.4076 24.1688 37.4076 23.3126V15.4582C37.4076 13.7272 38.8043 12.3313 40.5361 12.3313C42.2682 12.3313 43.6649 13.7272 43.6649 15.4582V23.3871C43.6649 24.2619 44.3727 24.9505 45.2293 24.9505C46.0859 24.9505 46.7937 24.2433 46.7937 23.3871V15.4582C46.7937 13.7272 48.1904 12.3313 49.9222 12.3313C51.6543 12.3313 53.051 13.7272 53.051 15.4582V23.3871C53.051 24.2619 53.7588 24.9505 54.6154 24.9505C55.472 24.9505 56.1798 24.2433 56.1798 23.3871V15.3837C56.1798 15.3651 56.1798 15.3279 56.1798 15.3093C56.1427 11.9032 53.3676 9.18578 49.9596 9.18578Z" fill="#1D355D"/>
<path fill-rule="evenodd" clip-rule="evenodd" d="M49.9596 9.18578C48.0787 9.18578 46.4025 10.0047 45.2479 11.3076C44.0932 10.0047 42.4171 9.18578 40.5361 9.18578C39.3443 9.18578 38.2268 9.52081 37.277 10.0978C37.035 9.53941 36.4764 9.14855 35.8432 9.14855C34.9677 9.14855 34.2788 9.85581 34.2788 10.712V23.3126C34.2788 24.1874 34.9866 24.876 35.8432 24.876C36.6998 24.876 37.4076 24.1688 37.4076 23.3126V15.4582C37.4076 13.7272 38.8043 12.3313 40.5361 12.3313C42.2682 12.3313 43.6649 13.7272 43.6649 15.4582V23.3871C43.6649 24.2619 44.3727 24.9505 45.2293 24.9505C46.0859 24.9505 46.7937 24.2433 46.7937 23.3871V15.4582C46.7937 13.7272 48.1904 12.3313 49.9222 12.3313C51.6543 12.3313 53.051 13.7272 53.051 15.4582V23.3871C53.051 24.2619 53.7588 24.9505 54.6154 24.9505C55.472 24.9505 56.1798 24.2433 56.1798 23.3871V15.3837C56.1798 15.3651 56.1798 15.3279 56.1798 15.3093C56.1427 11.9032 53.3676 9.18578 49.9596 9.18578Z" fill="#1D355D"/>
<path fill-rule="evenodd" clip-rule="evenodd" d="M109.259 15.3621C109.259 13.6474 110.678 12.2646 112.438 12.2646C114.198 12.2646 115.617 13.6474 115.617 15.3621H109.259ZM112.457 9.14855C108.938 9.14855 106.081 11.9327 106.081 15.3621V18.4597C106.081 21.8892 108.938 24.6733 112.457 24.6733H115.636C116.525 24.6733 117.225 23.9727 117.225 23.1245C117.225 22.2764 116.506 21.5757 115.636 21.5757H112.457C110.697 21.5757 109.278 20.1929 109.278 18.4781H117.244C118.133 18.4781 118.833 17.7775 118.833 16.9294V15.3806C118.814 11.9327 115.976 9.14855 112.457 9.14855Z" fill="#1D355D"/>
<path fill-rule="evenodd" clip-rule="evenodd" d="M109.259 15.3621C109.259 13.6474 110.678 12.2646 112.438 12.2646C114.198 12.2646 115.617 13.6474 115.617 15.3621H109.259ZM112.457 9.14855C108.938 9.14855 106.081 11.9327 106.081 15.3621V18.4597C106.081 21.8892 108.938 24.6733 112.457 24.6733H115.636C116.525 24.6733 117.225 23.9727 117.225 23.1245C117.225 22.2764 116.506 21.5757 115.636 21.5757H112.457C110.697 21.5757 109.278 20.1929 109.278 18.4781H117.244C118.133 18.4781 118.833 17.7775 118.833 16.9294V15.3806C118.814 11.9327 115.976 9.14855 112.457 9.14855Z" fill="#1D355D"/>
<path fill-rule="evenodd" clip-rule="evenodd" d="M95.0518 15.3621C95.0518 13.6474 96.4399 12.2646 98.1612 12.2646C99.8825 12.2646 101.271 13.6474 101.271 15.3621H95.0518ZM98.1798 9.14855C94.7372 9.14855 91.9422 11.9327 91.9422 15.3621V18.4597C91.9422 21.8892 94.7372 24.6733 98.1798 24.6733H101.289C102.159 24.6733 102.844 23.9727 102.844 23.1245C102.844 22.2764 102.141 21.5757 101.289 21.5757H98.1798C96.4585 21.5757 95.0701 20.1929 95.0701 18.4781H102.862C103.733 18.4781 104.417 17.7775 104.417 16.9294V15.3806C104.399 11.9327 101.622 9.14855 98.1798 9.14855Z" fill="#1D355D"/>
<path fill-rule="evenodd" clip-rule="evenodd" d="M95.0518 15.3621C95.0518 13.6474 96.4399 12.2646 98.1612 12.2646C99.8825 12.2646 101.271 13.6474 101.271 15.3621H95.0518ZM98.1798 9.14855C94.7372 9.14855 91.9422 11.9327 91.9422 15.3621V18.4597C91.9422 21.8892 94.7372 24.6733 98.1798 24.6733H101.289C102.159 24.6733 102.844 23.9727 102.844 23.1245C102.844 22.2764 102.141 21.5757 101.289 21.5757H98.1798C96.4585 21.5757 95.0701 20.1929 95.0701 18.4781H102.862C103.733 18.4781 104.417 17.7775 104.417 16.9294V15.3806C104.399 11.9327 101.622 9.14855 98.1798 9.14855Z" fill="#1D355D"/>
<path fill-rule="evenodd" clip-rule="evenodd" d="M121.744 2.77231C120.891 2.77231 120.219 3.4806 120.219 4.33801V23.1076C120.219 23.9836 120.909 24.6733 121.744 24.6733C122.579 24.6733 123.269 23.965 123.269 23.1076V4.33801C123.269 3.4806 122.579 2.77231 121.744 2.77231Z" fill="#1D355D"/>
<path fill-rule="evenodd" clip-rule="evenodd" d="M121.744 2.77231C120.891 2.77231 120.219 3.4806 120.219 4.33801V23.1076C120.219 23.9836 120.909 24.6733 121.744 24.6733C122.579 24.6733 123.269 23.965 123.269 23.1076V4.33801C123.269 3.4806 122.579 2.77231 121.744 2.77231Z" fill="#1D355D"/>
<path fill-rule="evenodd" clip-rule="evenodd" d="M89.8538 9.22229H87.3341V7.65506C87.3341 5.91992 88.7341 4.52062 90.4698 4.52062H92.0375C92.915 4.52062 93.6055 3.81163 93.6055 2.95339C93.6055 2.09515 92.8961 1.38617 92.0375 1.38617H90.4698C86.9981 1.38617 84.1798 4.20344 84.1798 7.67372V23.3833C84.1798 24.2602 84.8889 24.9505 85.7475 24.9505C86.6061 24.9505 87.3155 24.2415 87.3155 23.3833V12.3754H89.8352C90.7124 12.3754 91.403 11.6664 91.403 10.8082C91.403 9.94993 90.7124 9.22229 89.8538 9.22229Z" fill="#1D355D"/>
<path fill-rule="evenodd" clip-rule="evenodd" d="M89.8538 9.22229H87.3341V7.65506C87.3341 5.91992 88.7341 4.52062 90.4698 4.52062H92.0375C92.915 4.52062 93.6055 3.81163 93.6055 2.95339C93.6055 2.09515 92.8961 1.38617 92.0375 1.38617H90.4698C86.9981 1.38617 84.1798 4.20344 84.1798 7.67372V23.3833C84.1798 24.2602 84.8889 24.9505 85.7475 24.9505C86.6061 24.9505 87.3155 24.2415 87.3155 23.3833V12.3754H89.8352C90.7124 12.3754 91.403 11.6664 91.403 10.8082C91.403 9.94993 90.7124 9.22229 89.8538 9.22229Z" fill="#1D355D"/>
<path d="M6.78046 8.06578C6.26529 6.14318 7.40625 4.16702 9.32885 3.65185L22.1823 0.207764L26.7745 17.3458C27.2895 19.2684 26.1487 21.2445 24.2261 21.7597L14.8537 24.271C12.9311 24.7862 10.955 23.6452 10.4398 21.7226L6.78046 8.06578Z" fill="#FF8B00"/>
<path fill-rule="evenodd" clip-rule="evenodd" d="M5.87207 10.0312L2.92647 10.8205C1.00389 11.3356 -0.137067 13.3118 0.378092 15.2344L3.03292 25.1424C3.54807 27.065 5.52426 28.2058 7.44683 27.6907L13.8736 25.9686C11.951 26.484 9.97481 25.3429 9.45967 23.4203L5.87207 10.0312Z" fill="#FF8B00"/>
</svg>
